<?xml version="1.0" standalone="no"?>
<!DOCTYPE svg PUBLIC "-//W3C//DTD SVG 20010904//EN"
 "http://www.w3.org/TR/2001/REC-SVG-20010904/DTD/svg10.dtd">
<svg version="1.0" xmlns="http://www.w3.org/2000/svg"
 width="512.000000pt" height="512.000000pt" viewBox="0 0 512.000000 512.000000"
 preserveAspectRatio="xMidYMid meet">
<metadata>
Created by potrace 1.11, written by Peter Selinger 2001-2013
</metadata>
<g transform="translate(0.000000,512.000000) scale(0.100000,-0.100000)"
fill="#000000" stroke="none">
<path d="M2497 5104 c-1 -1 -45 -5 -97 -8 -52 -4 -106 -8 -120 -11 -14 -3 -41
-7 -60 -9 -19 -3 -60 -10 -90 -16 -30 -7 -65 -13 -77 -15 -11 -2 -47 -11 -80
-20 -32 -9 -65 -19 -73 -20 -107 -24 -419 -158 -550 -237 -103 -62 -269 -179
-341 -239 -50 -42 -262 -251 -298 -294 -48 -57 -49 -59 -16 -51 32 8 39 10
125 27 82 15 114 20 265 35 66 7 339 7 390 0 22 -3 65 -8 95 -11 30 -3 82 -11
115 -16 33 -6 69 -12 80 -14 56 -8 201 -48 330 -90 110 -36 291 -119 407 -186
117 -68 268 -170 268 -182 0 -6 3 -8 6 -4 3 3 16 -3 28 -13 11 -11 53 -46 91
-79 156 -131 262 -248 433 -476 20 -28 102 -155 102 -160 0 -3 11 -23 25 -45
14 -22 22 -40 18 -40 -5 0 -3 -4 3 -8 10 -6 85 -153 89 -172 0 -3 11 -27 23
-54 33 -74 108 -300 118 -356 1 -8 5 -26 8 -40 4 -14 9 -38 12 -55 3 -16 7
-34 8 -40 4 -14 19 -106 21 -130 1 -11 3 -20 4 -20 2 0 4 -27 7 -60 2 -33 6
-87 9 -120 7 -96 10 -235 5 -235 -3 0 -6 -30 -8 -68 -3 -87 -9 -161 -16 -192
-6 -29 -18 -117 -19 -142 -1 -10 -4 -18 -7 -18 -3 0 -7 -15 -8 -32 -1 -18 -7
-47 -12 -64 -6 -17 -13 -42 -16 -55 -3 -13 -6 -28 -8 -34 -1 -5 -8 -30 -15
-55 -6 -25 -16 -54 -21 -65 -19 -45 -60 -161 -60 -173 0 -6 -4 -12 -10 -12 -5
0 -10 -6 -10 -12 0 -23 -140 -297 -169 -332 -9 -10 -29 -13 -74 -11 -76 5
-204 16 -232 20 -11 2 -40 6 -65 9 -47 6 -63 9 -145 26 -65 13 -98 20 -110 24
-5 2 -23 6 -40 10 -157 40 -387 134 -525 214 -91 53 -230 152 -230 164 0 4 -5
8 -10 8 -29 0 -260 265 -260 298 0 6 -4 12 -9 12 -5 0 -11 8 -15 18 -3 9 -10
24 -15 32 -30 46 -86 193 -96 252 -3 17 -7 34 -9 37 -18 29 -26 313 -12 396 9
54 36 176 43 195 3 8 7 20 8 25 2 6 14 40 29 76 14 36 26 70 26 76 0 6 3 13 8
15 4 2 24 37 44 78 41 83 143 240 182 283 14 16 26 30 26 32 0 23 293 310 395
387 17 12 35 27 42 33 23 19 38 30 81 59 52 36 60 46 30 41 -13 -2 -48 -6 -78
-9 -93 -10 -236 -30 -290 -41 -14 -3 -41 -8 -60 -11 -19 -3 -82 -16 -140 -30
-58 -14 -112 -27 -120 -29 -38 -8 -253 -76 -325 -103 -336 -125 -656 -305
-890 -502 -151 -127 -348 -362 -415 -495 -8 -17 -19 -33 -25 -37 -5 -4 -7 -8
-3 -8 4 0 -4 -21 -17 -47 -22 -46 -62 -155 -71 -198 -25 -109 -32 -186 -29
-302 1 -72 5 -135 8 -140 4 -5 9 -25 12 -44 10 -57 78 -244 95 -259 3 -3 14
-22 25 -43 73 -140 253 -327 440 -458 218 -152 595 -308 875 -363 14 -2 48 -9
77 -15 29 -6 74 -13 100 -17 26 -3 50 -8 53 -9 3 -2 35 -6 70 -10 36 -4 94
-10 130 -15 69 -8 664 -6 715 3 17 3 64 9 105 12 41 4 82 11 91 16 9 4 18 6
21 4 4 -4 123 15 238 40 14 3 36 8 50 11 14 3 35 7 47 10 12 2 34 9 48 14 14
5 25 8 25 5 0 -5 273 88 335 115 131 56 401 202 425 229 3 3 28 22 55 41 28
19 52 38 53 42 2 4 10 8 17 8 7 0 15 3 17 8 2 4 32 31 68 61 114 95 306 296
388 406 82 109 177 261 227 360 17 33 34 63 38 66 5 3 8 8 6 10 -1 2 5 20 14
39 45 99 96 233 91 241 -3 5 -1 9 4 9 6 0 24 52 38 113 1 4 2 8 4 10 2 2 6 17
14 55 3 13 8 32 11 42 3 10 8 29 11 42 2 13 7 37 10 53 4 17 7 37 9 45 1 8 5
38 9 65 4 28 10 61 12 75 25 151 20 522 -10 700 -3 19 -8 49 -10 65 -2 17 -6
37 -10 45 -3 8 -8 29 -10 45 -3 17 -12 59 -21 95 -22 87 -21 83 -28 100 -3 8
-15 45 -26 83 -12 37 -32 92 -46 122 -13 30 -22 55 -20 55 5 0 -114 238 -140
280 -12 19 -24 40 -26 45 -3 9 -117 178 -136 200 -4 6 -21 28 -38 50 -89 120
-324 351 -455 448 -58 43 -109 81 -115 85 -69 52 -326 192 -415 226 -25 10
-58 24 -75 31 -66 30 -270 92 -365 111 -14 3 -32 7 -40 9 -8 3 -33 7 -55 10
-22 3 -62 10 -90 15 -81 15 -447 34 -458 24z"/>
</g>
</svg>
